# xmcd
#
# Track frame offsets: 
#        150
#        14591
#        28776
#        54512
#
# Disc length: 1327 seconds
#
# Revision: 1
# Processed by: cddbd v1.5.2PL0 Copyright (c) Steve Scherf et al.
# Submitted via: ExactAudioCopy v1.0b3
#
DISCID=2d052d04
DTITLE=Gwen Stefani - Wind It Up
DYEAR=2006
DGENRE=Pop
TTITLE0=Wind It Up (Main Mix)
TTITLE1=Wind It Up (Original Neptunes Mix)
TTITLE2=Wind It Up (Instrumental)
TTITLE3=Data track
EXTD=
EXTT0=
EXTT1=
EXTT2=
EXTT3=
PLAYORDER=
